<?xml version="1.0" encoding="UTF-8" standalone="no"?>
<svg xmlns="http://www.w3.org/2000/svg" xmlns:xlink="http://www.w3.org/1999/xlink" class="card" face="4D" height="3.5in" preserveAspectRatio="none" viewBox="-120 -168 240 336" width="2.5in"><symbol id="SD4" viewBox="-600 -600 1200 1200" preserveAspectRatio="xMinYMid"><path d="M-400 0C-350 0 0 -450 0 -500C0 -450 350 0 400 0C350 0 0 450 0 500C0 450 -350 0 -400 0Z" fill="blue"></path></symbol><symbol id="VD4" viewBox="-500 -500 1000 1000" preserveAspectRatio="xMinYMid"><path d="M50 460L250 460M150 460L150 -460L-300 175L-300 200L270 200" stroke="blue" stroke-width="80" stroke-linecap="square" stroke-miterlimit="1.5" fill="none"></path></symbol><rect width="239" height="335" x="-119.5" y="-167.5" rx="12" ry="12" fill="white" stroke="black"></rect><use xlink:href="#VD4" height="70" x="-122" y="-156"></use><use xlink:href="#SD4" height="58.558" x="-116.279" y="-81"></use><use xlink:href="#SD4" height="40" x="-59.668" y="-107.668"></use><use xlink:href="#SD4" height="40" x="19.668" y="-107.668"></use><g transform="rotate(180)"><use xlink:href="#VD4" height="70" x="-122" y="-156"></use><use xlink:href="#SD4" height="58.558" x="-116.279" y="-81"></use><use xlink:href="#SD4" height="40" x="-59.668" y="-107.668"></use><use xlink:href="#SD4" height="40" x="19.668" y="-107.668"></use></g></svg>