<?xml version="1.0" encoding="UTF-8" standalone="no"?>
<svg xmlns="http://www.w3.org/2000/svg" xmlns:xlink="http://www.w3.org/1999/xlink" class="card" face="8D" height="3.5in" preserveAspectRatio="none" viewBox="-120 -168 240 336" width="2.5in"><symbol id="SD8" viewBox="-600 -600 1200 1200" preserveAspectRatio="xMinYMid"><path d="M-400 0C-350 0 0 -450 0 -500C0 -450 350 0 400 0C350 0 0 450 0 500C0 450 -350 0 -400 0Z" fill="blue"></path></symbol><symbol id="VD8" viewBox="-500 -500 1000 1000" preserveAspectRatio="xMinYMid"><path d="M-1 -50A205 205 0 1 1 1 -50L-1 -50A255 255 0 1 0 1 -50Z" stroke="blue" stroke-width="80" stroke-linecap="square" stroke-miterlimit="1.5" fill="none"></path></symbol><rect width="239" height="335" x="-119.5" y="-167.5" rx="12" ry="12" fill="white" stroke="black"></rect><use xlink:href="#VD8" height="70" x="-122" y="-156"></use><use xlink:href="#SD8" height="58.558" x="-116.279" y="-81"></use><use xlink:href="#SD8" height="40" x="-59.668" y="-107.668"></use><use xlink:href="#SD8" height="40" x="19.668" y="-107.668"></use><use xlink:href="#SD8" height="40" x="-20" y="-63.834"></use><use xlink:href="#SD8" height="40" x="-59.668" y="-20"></use><use xlink:href="#SD8" height="40" x="19.668" y="-20"></use><g transform="rotate(180)"><use xlink:href="#VD8" height="70" x="-122" y="-156"></use><use xlink:href="#SD8" height="58.558" x="-116.279" y="-81"></use><use xlink:href="#SD8" height="40" x="-59.668" y="-107.668"></use><use xlink:href="#SD8" height="40" x="19.668" y="-107.668"></use><use xlink:href="#SD8" height="40" x="-20" y="-63.834"></use></g></svg>