<?xml version="1.0" encoding="UTF-8" standalone="no"?>
<svg xmlns="http://www.w3.org/2000/svg" xmlns:xlink="http://www.w3.org/1999/xlink" class="card" face="5D" height="3.5in" preserveAspectRatio="none" viewBox="-120 -168 240 336" width="2.5in"><symbol id="SD5" viewBox="-600 -600 1200 1200" preserveAspectRatio="xMinYMid"><path d="M-400 0C-350 0 0 -450 0 -500C0 -450 350 0 400 0C350 0 0 450 0 500C0 450 -350 0 -400 0Z" fill="blue"></path></symbol><symbol id="VD5" viewBox="-500 -500 1000 1000" preserveAspectRatio="xMinYMid"><path d="M170 -460L-175 -460L-210 -115C-210 -115 -200 -200 0 -200C100 -200 255 -80 255 120C255 320 180 460 -20 460C-220 460 -255 285 -255 285" stroke="blue" stroke-width="80" stroke-linecap="square" stroke-miterlimit="1.5" fill="none"></path></symbol><rect width="239" height="335" x="-119.5" y="-167.5" rx="12" ry="12" fill="white" stroke="black"></rect><use xlink:href="#VD5" height="70" x="-122" y="-156"></use><use xlink:href="#SD5" height="58.558" x="-116.279" y="-81"></use><use xlink:href="#SD5" height="40" x="-59.668" y="-107.668"></use><use xlink:href="#SD5" height="40" x="19.668" y="-107.668"></use><use xlink:href="#SD5" height="40" x="-20" y="-20"></use><g transform="rotate(180)"><use xlink:href="#VD5" height="70" x="-122" y="-156"></use><use xlink:href="#SD5" height="58.558" x="-116.279" y="-81"></use><use xlink:href="#SD5" height="40" x="-59.668" y="-107.668"></use><use xlink:href="#SD5" height="40" x="19.668" y="-107.668"></use></g></svg>